<svg  version="1.1" xmlns="http://www.w3.org/2000/svg" xmlns:xlink="http://www.w3.org/1999/xlink" x="0px" width="309.40000000000003" height="36.26411372057794" viewBox="0 0 307.14662119757133 36" class="looka-1j8o68f"><defs id="SvgjsDefs6255"></defs><g id="SvgjsG6256" featurekey="nameLeftFeature-0" transform="matrix(2.8616847981000504,0,0,2.8616847981000504,-2.8616847981000504,-21.233702784789244)" fill="#00adb5"><path d="M1 20 l0 -11.98 c0 -0.5 0.1 -0.6 0.26 -0.6 l8.76 0 c0.14 0 0.26 0.1 0.26 0.24 l0 2.26 c0 0.14 -0.12 0.26 -0.26 0.26 l-5.92 0 l0 2.08 l3.74 0 c0.14 0 0.26 0.12 0.26 0.26 l0 2.24 c0 0.14 -0.12 0.26 -0.26 0.26 l-3.74 0 l0 2.14 l5.9 0 c0.14 0 0.26 0.12 0.26 0.26 l0 2.24 c0 0.14 -0.12 0.26 -0.26 0.26 l-8.74 0 c-0.16 0 -0.26 -0.12 -0.26 0.08 z M12.52 20 c-0.1 0 -0.18 -0.06 -0.22 -0.14 s-0.04 -0.18 0 -0.26 l3.36 -5.98 l-3.08 -5.72 c-0.04 -0.08 -0.04 -0.18 0 -0.26 s0.12 -0.14 0.22 -0.14 l2.82 0 c0.1 0 0.18 0.04 0.22 0.12 l1.68 3.16 l1.68 -3.16 c0.04 -0.08 0.12 -0.12 0.22 -0.12 l2.88 0 c0.08 0 0.18 0.06 0.22 0.14 s0.04 0.18 -0.02 0.26 l-3.04 5.6 l3.38 6.1 c0.04 0.08 0.06 0.18 0 0.26 c-0.04 0.08 -0.12 0.14 -0.22 0.14 l-2.9 0 c-0.1 0 -0.18 -0.04 -0.22 -0.12 l-1.98 -3.5 l-1.94 3.5 c-0.06 0.08 -0.14 0.12 -0.22 0.12 l-2.84 0 z M25.119999999999997 20 c-0.14 0 -0.24 -0.12 -0.24 -0.26 l0 -11.98 c0 -0.14 0.1 -0.26 0.24 -0.26 l4.9 0 c1.52 0 2.72 0.38 3.56 1.16 c1.24 1.12 1.66 3.24 1.06 4.8 c-0.22 0.56 -0.6 1.08 -1.08 1.46 c-1.62 1.26 -3.64 1.14 -5.58 1.14 l0 3.68 c0 0.14 -0.12 0.26 -0.26 0.26 l-2.6 0 z M27.979999999999997 13.280000000000001 c0 0 2.52 0.28 3.4 -0.3 c0.34 -0.22 0.54 -0.76 0.54 -1.16 c-0.02 -0.44 -0.24 -0.9 -0.6 -1.18 c-0.38 -0.32 -1.32 -0.42 -1.8 -0.42 l-1.54 0.04 l0 3.02 z M36.94 20 l0 -11.98 c0 -0.5 0.1 -0.6 0.26 -0.6 l8.76 0 c0.14 0 0.26 0.1 0.26 0.24 l0 2.26 c0 0.14 -0.12 0.26 -0.26 0.26 l-5.92 0 l0 2.08 l3.74 0 c0.14 0 0.26 0.12 0.26 0.26 l0 2.24 c0 0.14 -0.12 0.26 -0.26 0.26 l-3.74 0 l0 2.14 l5.9 0 c0.14 0 0.26 0.12 0.26 0.26 l0 2.24 c0 0.14 -0.12 0.26 -0.26 0.26 l-8.74 0 c-0.16 0 -0.26 -0.12 -0.26 0.08 z"></path></g><g id="SvgjsG6257" featurekey="nameRightFeature-0" transform="matrix(2.3786043205722454,0,0,2.3786043205722454,133.001052624675,-11.607585953981445)" fill="#222831"><path d="M1.74 5.359999999999999 c1.62 -0.94 3.72 -0.4 4.78 1.24 l7.18 11.18 c0.42 0.7 0.18 1.64 -0.52 2.04 c-0.62 0.34 -1.5 0.28 -2 -0.54 l-7.14 -11.08 c-0.14 -0.22 -0.48 -0.5 -0.82 -0.3 c-0.16 0.1 -0.28 0.28 -0.28 0.48 l0 11.02 c0 0.32 -0.28 0.6 -0.6 0.6 c-0.34 0 -0.62 -0.28 -0.62 -0.6 l0 -11.02 c0 -0.64 0.34 -1.22 0.9 -1.54 c0.94 -0.54 1.96 -0.04 2.44 0.7 l7.14 11.08 c0.08 0.14 0.2 0.26 0.38 0.16 s0.14 -0.28 0.06 -0.38 l-7.14 -11.14 c-0.7 -1.1 -2.06 -1.48 -3.14 -0.86 c-0.7 0.42 -1.14 1.16 -1.14 1.96 l0 11.04 c0 0.32 -0.28 0.6 -0.62 0.6 c-0.32 0 -0.6 -0.28 -0.6 -0.6 l0 -10.96 c-0.02 -1.26 0.64 -2.46 1.74 -3.08 z M12.44 4.9 c0.82 0 1.48 0.66 1.48 1.46 l0 8.58 c0 0.34 -0.28 0.6 -0.6 0.6 c-0.34 0 -0.62 -0.26 -0.62 -0.6 l0 -8.58 c0 -0.14 -0.12 -0.26 -0.26 -0.26 s-0.24 0.12 -0.24 0.26 l0 5.74 c0 0.34 -0.28 0.62 -0.62 0.62 s-0.6 -0.28 -0.6 -0.62 l0 -5.74 c0 -0.8 0.66 -1.46 1.46 -1.46 z M20.04 4.880000000000001 l5.8 0 c0.82 0 1.48 0.66 1.48 1.48 c0 0.8 -0.66 1.46 -1.48 1.46 l-5.82 0 c-0.86 0 -1.56 0.7 -1.56 1.58 c0 0.86 0.7 1.56 1.56 1.56 l4 0 c2.5 0 4.52 2.02 4.52 4.52 c0 0.34 -0.28 0.6 -0.6 0.6 c-0.34 0 -0.62 -0.26 -0.62 -0.6 c0 -1.82 -1.48 -3.3 -3.3 -3.3 l-4 0 c-1.54 0 -2.78 -1.24 -2.78 -2.78 s1.24 -2.8 2.78 -2.8 l5.82 0 c0.14 0 0.26 -0.1 0.26 -0.24 s-0.12 -0.26 -0.26 -0.26 l-5.8 0 c-1.82 0 -3.3 1.48 -3.3 3.3 c0 0.34 -0.28 0.6 -0.62 0.6 c-0.32 0 -0.6 -0.26 -0.6 -0.6 c0 -2.5 2.02 -4.52 4.52 -4.52 z M20.04 12.7 l4 0 c1.54 0 2.78 1.26 2.78 2.8 s-1.24 2.78 -2.78 2.78 l-6.4 0 c-0.14 0 -0.26 0.12 -0.26 0.26 s0.12 0.24 0.26 0.24 l6.38 0 c0.34 0 0.6 0.28 0.6 0.62 c0 0.32 -0.26 0.6 -0.6 0.6 l-6.38 0 c-0.82 0 -1.48 -0.66 -1.48 -1.46 s0.62 -1.48 1.42 -1.48 l6.46 0 c0.86 0 1.56 -0.7 1.56 -1.56 c0 -0.88 -0.7 -1.58 -1.56 -1.58 l-4 0 c-0.34 0 -0.6 -0.28 -0.6 -0.6 c0 -0.34 0.26 -0.62 0.6 -0.62 z M33.64 4.880000000000001 l7.42 0 c0.8 0 1.46 0.66 1.46 1.46 s-0.62 1.48 -1.42 1.48 l-7.46 0 c-0.3 0 -0.56 0.24 -0.56 0.56 c0 0.3 0.26 0.56 0.56 0.56 c0.34 0 0.62 0.26 0.62 0.6 s-0.28 0.62 -0.62 0.62 c-0.98 0 -1.76 -0.8 -1.76 -1.78 s0.78 -1.78 1.76 -1.78 l7.42 0 c0.14 0 0.24 -0.12 0.24 -0.26 s-0.1 -0.24 -0.24 -0.24 l-7.42 0 c-1.26 0 -2.28 1.02 -2.28 2.28 s1.02 2.28 2.28 2.28 l5.38 0 c0.98 0 1.78 0.8 1.78 1.8 c0 0.98 -0.8 1.76 -1.78 1.76 l-5.38 0 c-1.26 0 -2.28 1.02 -2.28 2.28 s1.02 2.28 2.28 2.28 l8.26 0 c0.34 0 0.62 0.28 0.62 0.62 s-0.28 0.6 -0.62 0.6 l-8.26 0 c-1.94 0 -3.5 -1.56 -3.5 -3.5 c0 -1.92 1.56 -3.5 3.5 -3.5 l5.38 0 c0.32 0 0.56 -0.24 0.56 -0.54 c0 -0.34 -0.24 -0.58 -0.56 -0.58 l-5.38 0 c-1.92 0 -3.5 -1.58 -3.5 -3.5 c0 -1.94 1.58 -3.5 3.5 -3.5 z M33.64 14.74 l5.38 0 c0.34 0 0.62 0.26 0.62 0.6 s-0.28 0.62 -0.62 0.62 l-5.38 0 c-0.3 0 -0.56 0.24 -0.56 0.54 c0 0.32 0.26 0.56 0.56 0.56 c0.34 0 0.6 0.28 0.6 0.62 c0 0.32 -0.26 0.6 -0.6 0.6 c-0.98 0 -1.78 -0.8 -1.78 -1.78 s0.8 -1.76 1.78 -1.76 z M44.720000000000006 4.880000000000001 l7.28 0 c2.48 0.02 4.48 2.06 4.48 4.54 c0 2.32 -1.78 4.24 -4.04 4.48 l3.62 3.6 c0.54 0.54 0.54 1.54 0 2.08 s-1.48 0.58 -2.04 0.02 c-0.52 -0.54 -2.52 -2.52 -2.52 -2.52 c-0.24 -0.24 -0.24 -0.62 0 -0.86 s0.62 -0.24 0.86 0 l2.48 2.48 c0.1 0.1 0.26 0.12 0.36 0.02 s0.12 -0.24 0 -0.36 l-4.64 -4.62 c-0.12 -0.12 -0.18 -0.26 -0.18 -0.42 c0 -0.34 0.28 -0.62 0.62 -0.62 l0.96 0 c1.82 0 3.32 -1.48 3.32 -3.3 s-1.5 -3.3 -3.32 -3.3 l-6.62 0 l0 3.3 c0 0.34 -0.28 0.6 -0.62 0.6 s-0.6 -0.26 -0.6 -0.6 l0 -3.92 c0 -0.32 0.26 -0.6 0.6 -0.6 z M51.980000000000004 6.6 c1.54 0 2.8 1.26 2.8 2.8 s-1.26 2.78 -2.8 2.78 l-3.34 0 c-1.82 0 -3.3 1.48 -3.3 3.3 l0 3.92 c0 0.32 -0.28 0.6 -0.62 0.6 s-0.6 -0.28 -0.6 -0.6 l0 -3.92 c0 -2.5 2.02 -4.52 4.52 -4.52 l3.34 0 c0.88 0 1.58 -0.7 1.58 -1.56 c0 -0.88 -0.7 -1.58 -1.58 -1.58 c-0.34 0 -0.6 -0.26 -0.6 -0.6 s0.26 -0.62 0.6 -0.62 z M58.52 5.300000000000001 c0.54 -0.56 1.52 -0.56 2.06 0 l4.24 4.24 c0.24 0.24 0.24 0.62 0 0.86 s-0.62 0.24 -0.86 0 l-4.2 -4.2 c-0.12 -0.12 -0.26 -0.16 -0.38 -0.04 c-0.1 0.1 -0.1 0.26 0 0.36 l5.06 5.06 l6.28 -6.28 c0.54 -0.56 1.52 -0.56 2.08 0 c0.6 0.6 0.5 1.56 0 2.08 l-6.04 6.02 l0 6 c0 0.32 -0.26 0.6 -0.6 0.6 s-0.62 -0.28 -0.62 -0.6 l0 -6.22 c0 -0.16 0.04 -0.32 0.2 -0.48 l6.18 -6.18 c0.1 -0.1 0.1 -0.26 0 -0.36 c-0.08 -0.1 -0.24 -0.1 -0.34 0 l-6.54 6.54 l0 6.7 c0 0.32 -0.28 0.6 -0.62 0.6 c-0.32 0 -0.6 -0.28 -0.6 -0.6 l0 -6.72 l-5.3 -5.3 c-0.62 -0.62 -0.52 -1.56 0 -2.08 z"></path></g></svg>